<svg xmlns="http://www.w3.org/2000/svg" xmlns:xlink="http://www.w3.org/1999/xlink" width="85.607" height="60.78" viewBox="0 0 85.607 60.78"><defs><clipPath id="a"><rect width="85.607" height="60.78" fill="#fec400"/></clipPath></defs><g clip-path="url(#a)"><path d="M85.607,181.887c-.1.191-.2.379-.294.574a3.65,3.65,0,0,1-3.619,2.2q-7.273-.009-14.545,0h-1.1c0,.345,0,.614,0,.883a4.508,4.508,0,0,1-4.631,4.662c-.836.019-1.672,0-2.508,0q-17.22,0-34.44,0c-2.849,0-4.6-1.561-4.959-4.491h-.954q-7.231,0-14.461,0c-2.653,0-4.115-1.434-4.09-4.064.025-2.7-.174-5.4.48-8.066a17.006,17.006,0,0,1,18.253-12.652,16.678,16.678,0,0,1,6.69,2.185c.495.3.755.176,1.123-.181a22.561,22.561,0,0,1,12.809-6.32,23.012,23.012,0,0,1,19.109,5.75c.146.127.288.26.325.294a48.194,48.194,0,0,1,5.026-2.136,16.869,16.869,0,0,1,21.64,13.965,1.881,1.881,0,0,0,.141.38Zm-42.791,5.53q9.193,0,18.387,0c1.46,0,2.08-.615,2.1-2.079.011-.834-.015-1.668-.009-2.5a31.032,31.032,0,0,0-.694-8.71A20.526,20.526,0,0,0,36.469,160.1a20.192,20.192,0,0,0-14.088,18.082c-.141,2.33-.058,4.675-.077,7.012-.013,1.615.587,2.222,2.209,2.223q9.152,0,18.3,0m18.077-22.507a23.433,23.433,0,0,1,5.129,16.875,1.582,1.582,0,0,0,.29.093q7.772.008,15.543.012c.712,0,.991-.4.987-1.061-.009-1.643.051-3.291-.041-4.929a13.551,13.551,0,0,0-6.738-11.275c-4.635-2.885-11.05-2.748-15.171.285m-36.71.69c-.242-.151-.379-.245-.523-.325-7.94-4.405-18.418.114-20.418,8.963a41.772,41.772,0,0,0-.464,7.391c-.047,1.121.172,1.29,1.323,1.291q7.314,0,14.628,0c.264,0,.528-.025.9-.044-.5-6.319.651-12.133,4.555-17.275" transform="translate(0 -129.431)" fill="#fec400"/><path d="M184.575,25.294A12.647,12.647,0,1,1,184.512,0a12.72,12.72,0,0,1,12.781,12.619,12.7,12.7,0,0,1-12.719,12.675m-.034-2.766a9.98,9.98,0,0,0,10.006-9.872,10.007,10.007,0,0,0-20.013-.008,10,10,0,0,0,10.007,9.881" transform="translate(-142.218 0)" fill="#fec400"/><path d="M360.991,60.188a9.931,9.931,0,1,1-9.886-9.877,9.926,9.926,0,0,1,9.886,9.877m-9.95,7.026a7.06,7.06,0,1,0-7.124-7.09,7.123,7.123,0,0,0,7.124,7.09" transform="translate(-282.396 -41.649)" fill="#fec400"/><path d="M50.643,54.254a9.847,9.847,0,1,1-9.893,9.873,9.953,9.953,0,0,1,9.893-9.873m-.029,16.9A7.058,7.058,0,1,0,43.5,64.044a7.085,7.085,0,0,0,7.116,7.114" transform="translate(-33.734 -44.913)" fill="#fec400"/></g></svg>