<svg xmlns="http://www.w3.org/2000/svg" xmlns:xlink="http://www.w3.org/1999/xlink" width="42.939" height="41.6" viewBox="0 0 42.939 41.6"><defs><clipPath id="a"><rect width="42.939" height="41.6" fill="#005d89"/></clipPath></defs><g clip-path="url(#a)"><path d="M0,251.115c.081-.322.153-.645.244-.964A6.427,6.427,0,0,1,6.292,245.5c2.026-.022,4.053-.007,6.079-.005.505,0,.552.118.492.6a6.249,6.249,0,0,0,0,1.486c.055.463.005.592-.464.592-1.957,0-3.913,0-5.87,0a3.748,3.748,0,0,0-3.847,3.748,3.705,3.705,0,0,0,3.528,3.626c.691.028.685.066.587.737a4.918,4.918,0,0,0,.028,1.362c.064.461,0,.584-.469.588a6.4,6.4,0,0,1-6.272-5.305A2.922,2.922,0,0,0,0,252.625v-1.51" transform="translate(0 -217.987)" fill="#005d89"/><path d="M283.486,189.043h-5.293c-.475,0-.951.01-1.425,0a1.325,1.325,0,0,1-1.328-1.339q-.015-3.354,0-6.707a1.311,1.311,0,0,1,1.367-1.34q3.983-.011,7.965,0a1.336,1.336,0,0,1,1.4,1.442q.006,3.689,0,7.378c0,2.417,0,4.835,0,7.253a.64.64,0,0,0,.281.589,2.655,2.655,0,0,1,.366,3.924,2.683,2.683,0,0,1-3.948.02,2.65,2.65,0,0,1,.323-3.925.686.686,0,0,0,.3-.62c-.011-2.068-.006-4.136-.006-6.2Z" transform="translate(-244.573 -159.52)" fill="#005d89"/><path d="M11.326,6.123a6.232,6.232,0,0,1,5.7-6.111,6.071,6.071,0,0,1,6.381,5.242,7.519,7.519,0,0,1-.815,4.377,17.488,17.488,0,0,1-4.252,5.443,1.251,1.251,0,0,1-1.724.062,15.6,15.6,0,0,1-4.9-7.009,18.594,18.594,0,0,1-.387-2m8.122-.1a2.011,2.011,0,1,0-2.017,2.026,2.017,2.017,0,0,0,2.017-2.026" transform="translate(-10.057 0)" fill="#005d89"/><path d="M62.348,152.391c-2.362,0-4.723.005-7.084,0a1.336,1.336,0,0,1-1.3-1.87,1.315,1.315,0,0,1,1.3-.811q1.886,0,3.773,0c3.4,0,6.791-.006,10.187,0a6.709,6.709,0,0,1,.281,13.413c-.07,0-.14.007-.21,0a1.688,1.688,0,0,0-1.555.578,2.582,2.582,0,0,1-3.8-.12,2.675,2.675,0,0,1,.263-3.853,2.642,2.642,0,0,1,3.8.388.827.827,0,0,0,.736.331,4.167,4.167,0,0,0,3.484-1.307,3.816,3.816,0,0,0,.75-4.28,3.773,3.773,0,0,0-3.585-2.455c-2.346-.053-4.695-.013-7.042-.013Z" transform="translate(-47.812 -132.932)" fill="#005d89"/><path d="M99.1,327.388q-4.9,0-9.806-.006a.724.724,0,0,0-.661.308,2.648,2.648,0,0,1-3.924.317,2.675,2.675,0,0,1-.036-3.888,2.643,2.643,0,0,1,3.928.244.855.855,0,0,0,.768.348q9.722-.013,19.444-.006c.715,0,.724.051.62.739a4.5,4.5,0,0,0,.022,1.321c.077.514.026.623-.507.623q-4.568,0-9.135,0H99.1" transform="translate(-74.463 -287.13)" fill="#005d89"/></g></svg>