<svg xmlns="http://www.w3.org/2000/svg" xmlns:xlink="http://www.w3.org/1999/xlink" width="105.38" height="46.723" viewBox="0 0 105.38 46.723"><defs><clipPath id="a"><rect width="105.38" height="46.723" fill="none"/></clipPath></defs><g clip-path="url(#a)"><path d="M206.867,32.58a1.109,1.109,0,0,1,.336.812V55.6a1.151,1.151,0,0,1-1.109,1.109h-2.257a1.041,1.041,0,0,1-.791-.336,1.091,1.091,0,0,1-.317-.772V54.452a7.287,7.287,0,0,1-1.168.752q-.614.318-1.247.594a11.107,11.107,0,0,1-4.117.93,10.224,10.224,0,0,1-4.156-.772,10.467,10.467,0,0,1-2.613-1.564,8.566,8.566,0,0,1-1.979-2.316,8.36,8.36,0,0,1-1.089-2.751,15.9,15.9,0,0,1-.257-2.949V33.391a1.106,1.106,0,0,1,.336-.812,1.063,1.063,0,0,1,.772-.337h2.256a1.045,1.045,0,0,1,.792.337,1.143,1.143,0,0,1,.317.812V46.376a14.726,14.726,0,0,0,.1,1.742,4.066,4.066,0,0,0,.574,1.623A5.229,5.229,0,0,0,193.7,51.8a5.88,5.88,0,0,0,2.434.416,7.388,7.388,0,0,0,2.4-.534,6.508,6.508,0,0,0,2.355-1.584,7.065,7.065,0,0,0,1.484-2.415l.356-.871V33.391a1.14,1.14,0,0,1,.317-.812,1.043,1.043,0,0,1,.791-.337h2.257a1.064,1.064,0,0,1,.772.337" transform="translate(-139.034 -24.088)" fill="#005d89"/><path d="M295.61,31.465a1.272,1.272,0,0,1,.316.792v2.256a1.094,1.094,0,0,1-.316.772,1,1,0,0,1-.753.337,6.569,6.569,0,0,0-2.414.554,6.954,6.954,0,0,0-3.207,2.633,7.123,7.123,0,0,0-1.148,3.978V54.782a1.108,1.108,0,0,1-.337.812,1.062,1.062,0,0,1-.772.337h-2.257a1.061,1.061,0,0,1-.772-.337,1.105,1.105,0,0,1-.336-.812V32.732a1.106,1.106,0,0,1,.336-.812,1.064,1.064,0,0,1,.772-.337h2.257a1.065,1.065,0,0,1,.772.337,1.108,1.108,0,0,1,.337.812v.831a8.513,8.513,0,0,1,1.247-.831q.653-.356,1.366-.673a10.754,10.754,0,0,1,4.078-.911,1.317,1.317,0,0,1,.832.317" transform="translate(-211.883 -23.27)" fill="#005d89"/><path d="M355.9,47.7a6.213,6.213,0,0,1-.713,3.5,8.894,8.894,0,0,1-2.3,2.791,8.646,8.646,0,0,1-4.335,1.821,12.357,12.357,0,0,1-4.731-.277,12.739,12.739,0,0,1-4.553-2.177,11.132,11.132,0,0,1-3.246-3.84l-.514-.99a1.106,1.106,0,0,1,.039-1.109,1.085,1.085,0,0,1,.95-.554h2.534a1.049,1.049,0,0,1,.99.594,6.864,6.864,0,0,0,2.058,2.375,8.311,8.311,0,0,0,2.85,1.346,8.665,8.665,0,0,0,2.712.218,4.3,4.3,0,0,0,2.474-.93,4.49,4.49,0,0,0,.772-.811,2.649,2.649,0,0,0,.456-.93,1.672,1.672,0,0,0-.04-.95,1.628,1.628,0,0,0-.713-.831,6.2,6.2,0,0,0-1.128-.614q-.615-.257-1.207-.455-.871-.277-1.722-.495t-1.762-.455l-.356-.119q-.357-.119-.732-.218a6.443,6.443,0,0,1-.772-.257,14.38,14.38,0,0,1-2.177-.871,8.578,8.578,0,0,1-1.841-1.227,5.8,5.8,0,0,1-1.326-1.7,5.737,5.737,0,0,1-.594-2.335,3.888,3.888,0,0,1,.119-1.465,5.676,5.676,0,0,1,1.128-2.3,7.634,7.634,0,0,1,1.9-1.662,10.307,10.307,0,0,1,2.355-1.069,10.865,10.865,0,0,1,8.373.772,10.524,10.524,0,0,1,4.216,4.176l.554.99a.95.95,0,0,1,0,1.108,1.028,1.028,0,0,1-.95.554h-2.613a1.026,1.026,0,0,1-.95-.554,6.237,6.237,0,0,0-2.455-2.375,5.991,5.991,0,0,0-3.365-.633,7.042,7.042,0,0,0-1.445.237,4.482,4.482,0,0,0-1.326.594,4.22,4.22,0,0,0-.653.515,1.33,1.33,0,0,0-.416.673v.2a1.389,1.389,0,0,0,.356.831,2.774,2.774,0,0,0,.752.594,6.569,6.569,0,0,0,.93.416q.494.178.851.3l1.663.475c.238.079.468.152.693.218s.455.125.693.178q1.464.4,2.989.891a10.8,10.8,0,0,1,2.791,1.366,6.522,6.522,0,0,1,1.861,1.94A6.05,6.05,0,0,1,355.9,47.7" transform="translate(-250.556 -23.317)" fill="#005d89"/><path d="M292.776,143.1a.417.417,0,0,1,.015.448,6.031,6.031,0,0,1-.98,1.5,6.59,6.59,0,0,1-1.365,1.157,6.22,6.22,0,0,1-3.394.987,6.356,6.356,0,0,1-4.5-10.845,6.357,6.357,0,0,1,2.021-1.357,6.308,6.308,0,0,1,4.25-.257,6.719,6.719,0,0,1,1.628.727,6.4,6.4,0,0,1,1.365,1.159,6.141,6.141,0,0,1,.98,1.5.436.436,0,0,1-.015.432.449.449,0,0,1-.4.216h-.987a.389.389,0,0,1-.386-.231,4.452,4.452,0,0,0-1.674-1.666,4.522,4.522,0,0,0-2.275-.6,4.476,4.476,0,0,0-1.774.356,4.546,4.546,0,0,0-1.45.973,4.661,4.661,0,0,0-.979,1.453,4.532,4.532,0,0,0,0,3.554,4.605,4.605,0,0,0,2.429,2.434,4.394,4.394,0,0,0,1.774.363A4.56,4.56,0,0,0,291,143.112a.413.413,0,0,1,.386-.216h.987a.485.485,0,0,1,.4.2" transform="translate(-209.704 -100.462)" fill="#fec400"/><path d="M337.753,134.483a.451.451,0,0,1,.131.332v.864a.449.449,0,0,1-.463.463H333.3V146.6a.448.448,0,0,1-.463.463h-.864a.449.449,0,0,1-.463-.463V136.142h-4.119a.457.457,0,0,1-.324-.131.436.436,0,0,1-.139-.332v-.864a.438.438,0,0,1,.139-.332.458.458,0,0,1,.324-.131h10.027a.45.45,0,0,1,.332.131" transform="translate(-244.244 -100.372)" fill="#fec400"/><path d="M379.111,140.273a.456.456,0,0,1,.131.323q0,.508-.023.947a5.2,5.2,0,0,1-.146.947,6.091,6.091,0,0,1-.872,1.909,6.41,6.41,0,0,1-1.4,1.478,6.511,6.511,0,0,1-1.8.962,6.206,6.206,0,0,1-2.067.346,6.356,6.356,0,0,1-4.5-10.845,6.36,6.36,0,0,1,2.021-1.357,6.309,6.309,0,0,1,4.25-.257,6.729,6.729,0,0,1,1.627.727,6.4,6.4,0,0,1,1.365,1.159,6.142,6.142,0,0,1,.98,1.5.373.373,0,0,1-.031.432.414.414,0,0,1-.386.216h-.987a.442.442,0,0,1-.4-.231,4.339,4.339,0,0,0-1.658-1.666,4.526,4.526,0,0,0-2.276-.6,4.473,4.473,0,0,0-1.774.355,4.548,4.548,0,0,0-1.45.973,4.66,4.66,0,0,0-.98,1.453,4.538,4.538,0,0,0,0,3.554,4.6,4.6,0,0,0,2.43,2.434,4.392,4.392,0,0,0,1.774.363,4.53,4.53,0,0,0,1.512-.255,4.4,4.4,0,0,0,1.3-.717,4.85,4.85,0,0,0,1-1.1,4.3,4.3,0,0,0,.609-1.4h-4.35a.42.42,0,0,1-.316-.138.45.45,0,0,1-.131-.321v-.872a.451.451,0,0,1,.131-.321.422.422,0,0,1,.316-.138H378.8a.42.42,0,0,1,.316.139" transform="translate(-273.863 -100.462)" fill="#fec400"/><path d="M27.771.337a1.156,1.156,0,0,1,.337.851V3.4A1.151,1.151,0,0,1,26.92,4.592H16.35v26.84a1.151,1.151,0,0,1-1.188,1.188H12.945a1.151,1.151,0,0,1-1.187-1.188V4.592H1.188a1.171,1.171,0,0,1-.831-.336A1.12,1.12,0,0,1,0,3.4V1.188A1.122,1.122,0,0,1,.356.337,1.175,1.175,0,0,1,1.188,0H26.92a1.156,1.156,0,0,1,.851.337" transform="translate(0 0)" fill="#005d89"/><path d="M124.006,142.216a.86.86,0,0,0-.914.707c-.036.63-.01,1.264-.01,1.9h1.826c0-.642.022-1.264-.008-1.883a.856.856,0,0,0-.9-.725" transform="translate(-91.946 -106.247)" fill="#005d89"/><path d="M121.965,110.54a1.616,1.616,0,0,0-1.61,1.641,1.611,1.611,0,1,0,3.222-.039,1.623,1.623,0,0,0-1.612-1.6m0,2.2a.535.535,0,1,1,.535-.535.535.535,0,0,1-.535.535" transform="translate(-89.915 -82.582)" fill="#005d89"/><path d="M100.229,40.7A13.228,13.228,0,0,0,94.5,31.575,12.725,12.725,0,0,0,88.843,29.4c-.309-.041-.615-.093-.923-.14h-1.81c-.684.114-1.375.195-2.05.349A13.092,13.092,0,0,0,76.8,34.04a13.291,13.291,0,0,0-3.016,6.771,14.38,14.38,0,0,0,1.03,7.356A38.927,38.927,0,0,0,79.743,56.9l.056.076.95-.336c.108-.038.218-.07.326-.107.384-.134.878-.169,1.117-.434.211-.234.138-.725.195-1.131l.42-.049c.007-.117.019-.239.02-.361,0-1.452.014-2.9-.009-4.356A5.421,5.421,0,0,0,82.6,49.17c.461-.231.951-.494,1.457-.725a.456.456,0,0,0,.315-.488c-.015-.98.011-1.962-.017-2.941a2.618,2.618,0,0,0-.208-.71c.07-.277.113-.51.187-.733.205-.614.411-1.228.649-1.83.037-.094.245-.12.427-.2L86.08,38.4a5.01,5.01,0,0,0,.113-.56.434.434,0,0,0-.082-.288.415.415,0,0,1,.1-.685c.183-.1.382-.179.594-.276-.216-.3-.363-.6.087-.866.059-.034.045-.211.045-.323,0-.318-.008-.636-.013-.954h.153c.01.266.024.532.029.8a1,1,0,0,0,.194.7c.106.131-.011.444-.028.684.126.058.324.135.507.238a.415.415,0,0,1,.11.68.36.36,0,0,0-.1.249c.263,1.268.538,2.533.81,3.8l.112-.075c.136.156.334.29.4.47.214.632.376,1.281.572,1.919a1.432,1.432,0,0,0,.242.336c-.512.661-.224,1.46-.291,2.216a5.3,5.3,0,0,1-.01.648,1.333,1.333,0,0,0,1.089,1.726,5.367,5.367,0,0,1,.755.374,3.244,3.244,0,0,0-.3,2c-.013,1.22,0,2.441,0,3.688l.5.07c0,.271.017.548-.005.822-.019.236.076.335.291.405.752.246,1.5.508,2.287.778a51.3,51.3,0,0,0,3.188-5,22.858,22.858,0,0,0,2.781-7.346c.061-.363.118-.726.177-1.09V41.732c-.05-.342-.1-.685-.152-1.027" transform="translate(-55.026 -21.861)" fill="#005d89"/><path d="M113.705,64.816a6.538,6.538,0,1,1-6.553-6.535,6.561,6.561,0,0,1,6.553,6.535" transform="translate(-75.179 -43.541)" fill="#e0f3f9"/><path d="M109.808,71.1c.022-.274.005-.551.005-.822l-.5-.07c0-1.248-.01-2.468,0-3.688a3.244,3.244,0,0,1,.3-2,5.37,5.37,0,0,0-.755-.375,1.333,1.333,0,0,1-1.089-1.726,5.293,5.293,0,0,0,.01-.647c.066-.756-.221-1.555.291-2.216a1.439,1.439,0,0,1-.242-.335c-.2-.638-.358-1.288-.572-1.919-.061-.181-.26-.315-.4-.47l-.112.075c-.272-1.266-.546-2.531-.809-3.8a.359.359,0,0,1,.1-.249.415.415,0,0,0-.11-.681c-.183-.1-.381-.18-.507-.237.017-.24.135-.553.029-.684a1,1,0,0,1-.195-.7c-.006-.266-.019-.532-.029-.8h-.153c.005.318.014.636.013.954,0,.111.014.289-.045.323-.449.263-.3.57-.086.866-.212.1-.411.172-.594.276a.415.415,0,0,0-.1.685.434.434,0,0,1,.082.288,5.027,5.027,0,0,1-.113.56l-.673,3.145c-.181.081-.389.107-.427.2-.238.6-.444,1.216-.649,1.829-.074.223-.117.456-.187.733a2.617,2.617,0,0,1,.208.709c.028.98,0,1.961.017,2.942a.456.456,0,0,1-.315.488c-.505.231-1,.493-1.457.725a5.447,5.447,0,0,1,.222,1.028c.023,1.451.01,2.9.009,4.356,0,.122-.013.244-.02.361l-.42.049c-.057.406.016.9-.195,1.131-.239.265-.734.3-1.117.434-.108.038-.218.07-.326.107l-.95.336a67.685,67.685,0,0,0,6.246,7.442,1.157,1.157,0,0,0,1.933.006,69.839,69.839,0,0,0,6.257-7.444c-.787-.271-1.535-.533-2.287-.778-.216-.071-.31-.17-.291-.405M106.14,75.75h-1.826c0-.637-.027-1.271.01-1.9a.929.929,0,0,1,1.809.019c.029.619.008,1.242.008,1.883m-.913-7.385a1.6,1.6,0,0,1-1.611-1.594,1.611,1.611,0,1,1,1.611,1.594" transform="translate(-73.177 -37.173)" fill="#fec400"/><path d="M125.137,115.026a.535.535,0,1,0,.535.535.535.535,0,0,0-.535-.535" transform="translate(-93.088 -85.934)" fill="#fec400"/></g></svg>