<svg xmlns="http://www.w3.org/2000/svg" width="149.487" height="66.284" viewBox="0 0 149.487 66.284"><g transform="translate(-34.09 -42.24)"><path d="M331.944,188.97a.584.584,0,0,1,.022.635,8.614,8.614,0,0,1-1.388,2.124,9.512,9.512,0,0,1-1.937,1.643,8.831,8.831,0,0,1-4.815,1.4,8.965,8.965,0,0,1-9.016-9.016,8.96,8.96,0,0,1,2.626-6.368,9,9,0,0,1,2.866-1.927,8.947,8.947,0,0,1,6.027-.362,9.615,9.615,0,0,1,2.307,1.03,9.183,9.183,0,0,1,1.937,1.643,8.689,8.689,0,0,1,1.388,2.131.626.626,0,0,1-.022.613.639.639,0,0,1-.57.3h-1.4a.546.546,0,0,1-.545-.33,6.313,6.313,0,0,0-2.375-2.364,6.412,6.412,0,0,0-3.229-.854,6.312,6.312,0,0,0-2.515.506,6.419,6.419,0,0,0-2.056,1.381,6.553,6.553,0,0,0-1.388,2.059,6.456,6.456,0,0,0,0,5.044,6.534,6.534,0,0,0,3.444,3.451,6.211,6.211,0,0,0,2.515.517,6.471,6.471,0,0,0,5.6-3.24.584.584,0,0,1,.545-.3h1.4a.7.7,0,0,1,.57.283Z" transform="translate(-180.01 -86.247)" fill="#fec400"/><path d="M376.385,176.8a.647.647,0,0,1,.187.47v1.227a.627.627,0,0,1-.187.47.647.647,0,0,1-.47.187h-5.844v14.835a.627.627,0,0,1-.187.47.647.647,0,0,1-.47.187h-1.227a.638.638,0,0,1-.657-.657V179.15h-5.844a.637.637,0,0,1-.459-.187.61.61,0,0,1-.2-.47v-1.227a.615.615,0,0,1,.2-.47.658.658,0,0,1,.459-.187h14.225a.627.627,0,0,1,.47.187Z" transform="translate(-209.648 -86.164)" fill="#fec400"/><path d="M418.47,184.95a.658.658,0,0,1,.187.459c0,.481-.011.929-.032,1.342a7.124,7.124,0,0,1-.208,1.342,8.617,8.617,0,0,1-1.238,2.709,9.073,9.073,0,0,1-4.542,3.458,8.819,8.819,0,0,1-2.931.492,8.965,8.965,0,0,1-9.016-9.016,8.96,8.96,0,0,1,2.626-6.368,9,9,0,0,1,2.866-1.927,8.947,8.947,0,0,1,6.027-.362,9.615,9.615,0,0,1,2.307,1.03,9.184,9.184,0,0,1,1.937,1.643,8.689,8.689,0,0,1,1.388,2.131.531.531,0,0,1-.043.613.584.584,0,0,1-.545.3h-1.4a.626.626,0,0,1-.57-.33,6.157,6.157,0,0,0-2.353-2.364,6.412,6.412,0,0,0-3.229-.854,6.312,6.312,0,0,0-2.515.506,6.419,6.419,0,0,0-2.056,1.381,6.553,6.553,0,0,0-1.388,2.059,6.456,6.456,0,0,0,0,5.044,6.534,6.534,0,0,0,3.444,3.451,6.211,6.211,0,0,0,2.515.517,6.446,6.446,0,0,0,2.145-.362,6.218,6.218,0,0,0,1.848-1.019,6.75,6.75,0,0,0,1.421-1.553,6.118,6.118,0,0,0,.865-1.991H409.81a.6.6,0,0,1-.448-.194.635.635,0,0,1-.187-.456V185.4a.635.635,0,0,1,.187-.456.6.6,0,0,1,.448-.194h8.2a.591.591,0,0,1,.448.2Z" transform="translate(-235.08 -86.234)" fill="#fec400"/><path d="M73.489,42.724a1.636,1.636,0,0,1,.477,1.209V47.08a1.632,1.632,0,0,1-1.686,1.686H57.287V86.837A1.632,1.632,0,0,1,55.6,88.523H52.455a1.632,1.632,0,0,1-1.686-1.686V48.759H35.776a1.663,1.663,0,0,1-1.18-.477,1.592,1.592,0,0,1-.506-1.209V43.926a1.6,1.6,0,0,1,.506-1.209,1.657,1.657,0,0,1,1.18-.477h36.5a1.655,1.655,0,0,1,1.209.477Z" fill="#161616"/><path d="M249.67,74.977a1.582,1.582,0,0,1,.477,1.152v31.5a1.633,1.633,0,0,1-1.571,1.571h-3.2a1.478,1.478,0,0,1-1.123-.477,1.542,1.542,0,0,1-.448-1.094V106a10.166,10.166,0,0,1-1.657,1.066q-.872.452-1.769.843a15.755,15.755,0,0,1-5.841,1.32,14.482,14.482,0,0,1-5.894-1.094,14.851,14.851,0,0,1-3.706-2.217,12.208,12.208,0,0,1-2.809-3.286,11.807,11.807,0,0,1-1.543-3.9,22.557,22.557,0,0,1-.366-4.183V76.129a1.568,1.568,0,0,1,.477-1.152,1.5,1.5,0,0,1,1.094-.477h3.2a1.491,1.491,0,0,1,1.123.477,1.63,1.63,0,0,1,.448,1.152V94.547a20.993,20.993,0,0,0,.14,2.472,5.8,5.8,0,0,0,.814,2.3,7.408,7.408,0,0,0,3.484,2.92,8.332,8.332,0,0,0,3.451.588,10.544,10.544,0,0,0,3.4-.757,9.256,9.256,0,0,0,3.34-2.246A10.043,10.043,0,0,0,243.3,96.4l.506-1.234V76.132a1.63,1.63,0,0,1,.448-1.152,1.473,1.473,0,0,1,1.123-.477h3.2a1.508,1.508,0,0,1,1.094.477Z" transform="translate(-119.355 -20.687)" fill="#161616"/><path d="M334.742,73.858a1.806,1.806,0,0,1,.448,1.123v3.2a1.551,1.551,0,0,1-.448,1.094,1.417,1.417,0,0,1-1.065.477,9.318,9.318,0,0,0-3.426.786,9.883,9.883,0,0,0-4.549,3.735,10.1,10.1,0,0,0-1.629,5.643v17.016a1.582,1.582,0,0,1-.477,1.152,1.5,1.5,0,0,1-1.094.477h-3.2a1.5,1.5,0,0,1-1.094-.477,1.568,1.568,0,0,1-.477-1.152V75.656a1.568,1.568,0,0,1,.477-1.152,1.5,1.5,0,0,1,1.094-.477h3.2a1.5,1.5,0,0,1,1.094.477,1.568,1.568,0,0,1,.477,1.152v1.18a12.142,12.142,0,0,1,1.769-1.18c.617-.337,1.263-.653,1.937-.954a15.319,15.319,0,0,1,5.783-1.292A1.877,1.877,0,0,1,334.742,73.858Z" transform="translate(-181.882 -19.988)" fill="#161616"/><path d="M398.6,96.856a8.778,8.778,0,0,1-1.012,4.969,12.586,12.586,0,0,1-3.258,3.957,12.243,12.243,0,0,1-6.149,2.583,17.519,17.519,0,0,1-6.709-.395,18.069,18.069,0,0,1-6.458-3.089,15.771,15.771,0,0,1-4.6-5.446l-.728-1.4a1.562,1.562,0,0,1,.057-1.571,1.539,1.539,0,0,1,1.349-.786h3.595a1.483,1.483,0,0,1,1.4.843,9.706,9.706,0,0,0,2.92,3.369,11.794,11.794,0,0,0,4.043,1.909,12.264,12.264,0,0,0,3.846.309,6.1,6.1,0,0,0,3.509-1.32,6.4,6.4,0,0,0,1.094-1.152,3.727,3.727,0,0,0,.646-1.32,2.372,2.372,0,0,0-.057-1.349,2.319,2.319,0,0,0-1.012-1.18,8.766,8.766,0,0,0-1.6-.872q-.872-.366-1.711-.646-1.238-.393-2.443-.7t-2.5-.646l-.506-.169c-.337-.111-.685-.215-1.04-.309a9.106,9.106,0,0,1-1.094-.366,20.613,20.613,0,0,1-3.089-1.234,12.134,12.134,0,0,1-2.612-1.74,7.912,7.912,0,0,1-2.723-5.726,5.535,5.535,0,0,1,.169-2.077,8.041,8.041,0,0,1,1.6-3.258,10.774,10.774,0,0,1,2.694-2.357,14.77,14.77,0,0,1,3.34-1.518,15.4,15.4,0,0,1,11.875,1.094,14.935,14.935,0,0,1,5.98,5.923l.786,1.4a1.347,1.347,0,0,1,0,1.571,1.461,1.461,0,0,1-1.349.786h-3.706a1.461,1.461,0,0,1-1.349-.786,8.848,8.848,0,0,0-3.48-3.369,8.473,8.473,0,0,0-4.771-.9,9.881,9.881,0,0,0-2.048.337,6.341,6.341,0,0,0-1.88.843,5.884,5.884,0,0,0-.926.728,1.861,1.861,0,0,0-.588.954v.28a1.964,1.964,0,0,0,.506,1.18,3.968,3.968,0,0,0,1.065.843,9.2,9.2,0,0,0,1.32.588c.466.169.872.309,1.209.42l2.357.674c.337.111.664.215.983.309s.646.179.983.251q2.077.56,4.241,1.263a15.453,15.453,0,0,1,3.961,1.937,9.27,9.27,0,0,1,2.64,2.752,8.539,8.539,0,0,1,1.234,3.595Z" transform="translate(-215.079 -20.017)" fill="#161616"/><g transform="translate(60.521 52.744)"><path d="M125.432,71.52H128c.438.065.872.14,1.309.2a18.01,18.01,0,0,1,8.025,3.085,18.758,18.758,0,0,1,8.126,12.948c.075.484.143.972.215,1.457v2.569c-.083.517-.165,1.03-.251,1.546a32.366,32.366,0,0,1-3.946,10.418,86.849,86.849,0,0,1-13.4,17.647,1.639,1.639,0,0,1-2.741-.007,95.673,95.673,0,0,1-8.937-10.662,55.076,55.076,0,0,1-7-12.381,20.4,20.4,0,0,1-1.46-10.436,18.858,18.858,0,0,1,4.28-9.6,18.556,18.556,0,0,1,10.3-6.282c.958-.219,1.937-.334,2.91-.5Zm10.763,18.96a9.478,9.478,0,1,0-9.482,9.5,9.51,9.51,0,0,0,9.482-9.5Z" transform="translate(-107.765 -71.52)" fill="#161616"/><path d="M153.127,107.435a9.478,9.478,0,1,1-9.5-9.475A9.516,9.516,0,0,1,153.127,107.435Z" transform="translate(-124.697 -88.474)" fill="#fec400"/></g></g></svg>