<svg xmlns="http://www.w3.org/2000/svg" xmlns:xlink="http://www.w3.org/1999/xlink" width="75.003" height="74.998" viewBox="0 0 75.003 74.998"><defs><clipPath id="a"><rect width="75.003" height="74.998" fill="#fec400"/></clipPath></defs><g clip-path="url(#a)"><path d="M75,36.029a4.382,4.382,0,0,1-1.816,1.817c-1.731,1.049-3.419,2.17-5.154,3.213a1.2,1.2,0,0,0-.644,1.172c-.037,2.172-.095,4.345-.191,6.515a2.4,2.4,0,0,1-3.277,2.323,3.917,3.917,0,0,1-.972-.638c-1.677-1.381-3.356-2.76-5-4.177a1.1,1.1,0,0,0-1.178-.236c-2.08.616-4.171,1.192-6.251,1.805a2.438,2.438,0,0,1-2.738-.665,2.4,2.4,0,0,1-.336-2.733c.327-.758.613-1.534.949-2.386-.59-.314-1.161-.622-1.736-.923-2.874-1.5-5.746-3.006-8.628-4.491a1.053,1.053,0,0,0-.788-.129c-3.534,1.812-7.051,3.657-10.637,5.529.321.817.61,1.612.943,2.388a2.413,2.413,0,0,1-.375,2.791,2.448,2.448,0,0,1-2.688.623c-2.085-.6-4.182-1.152-6.26-1.772a1.279,1.279,0,0,0-1.363.312c-1.586,1.375-3.215,2.7-4.806,4.069a2.49,2.49,0,0,1-2.822.586,2.525,2.525,0,0,1-1.461-2.493c-.074-2.2-.188-4.39-.256-6.586a1,1,0,0,0-.546-.926c-1.874-1.144-3.723-2.327-5.6-3.469a2.411,2.411,0,0,1-1.36-2.393,2.451,2.451,0,0,1,1.83-2.144c2.064-.742,4.11-1.532,6.177-2.267a1.164,1.164,0,0,0,.836-.961c.487-2.114,1.032-4.214,1.538-6.323a2.445,2.445,0,0,1,4.45-.964c1.387,1.765,2.8,3.514,4.173,5.288a.964.964,0,0,0,.98.429c1.359-.138,2.725-.207,4.085-.332a3.153,3.153,0,0,0,.76-.275,2.692,2.692,0,0,0-.387-.777c-2.74-2.68-5.513-5.326-8.233-8.025a3.506,3.506,0,0,1-.956-1.659,2.347,2.347,0,0,1,2.037-2.8c3.664-.558,7.329-1.117,11.007-1.576A2.284,2.284,0,0,0,30.356,11.3c1.553-3.283,3.207-6.517,4.824-9.769A2.519,2.519,0,0,1,39.8,1.505c.066.13.128.263.193.394,1.661,3.34,3.329,6.677,4.975,10.024a1.108,1.108,0,0,0,.975.7c3.77.513,7.535,1.065,11.3,1.623,1.753.26,2.742,1.3,2.492,2.8a3.566,3.566,0,0,1-.994,1.79c-2.662,2.654-5.382,5.249-8.083,7.865a2.48,2.48,0,0,0-.412.414c-.217.347-.226.683.285.724,1.63.131,3.261.25,4.894.327.2.009.461-.23.611-.419,1.428-1.8,2.823-3.617,4.26-5.4a2.332,2.332,0,0,1,3.591-.222,3.265,3.265,0,0,1,.695,1.336c.573,2.142,1.105,4.3,1.619,6.453a1.092,1.092,0,0,0,.813.882c1.888.652,3.748,1.389,5.642,2.026A3.551,3.551,0,0,1,75,34.71ZM49.677,39.864c-.023-.309-.02-.523-.056-.729-.63-3.653-1.23-7.311-1.917-10.953a3.149,3.149,0,0,1,1.046-3.139c2.659-2.518,5.272-5.084,7.9-7.633.17-.165.329-.343.541-.565a2.654,2.654,0,0,0-.4-.134C53,16.163,49.217,15.6,45.421,15.089a3.086,3.086,0,0,1-2.593-1.846C41.213,9.909,39.544,6.6,37.893,3.281c-.111-.223-.239-.437-.411-.751-1.839,3.69-3.627,7.237-5.373,10.8a2.939,2.939,0,0,1-2.427,1.738c-3.528.486-7.051,1-10.576,1.511-.413.06-.824.141-1.235.212l-.086.2a7.036,7.036,0,0,1,.634.489c2.672,2.576,5.331,5.165,8.009,7.733a2.726,2.726,0,0,1,.932,2.56c-.5,2.883-1.007,5.765-1.508,8.648-.192,1.106-.374,2.215-.583,3.453.4-.2.634-.321.869-.443,3.33-1.735,6.664-3.462,9.986-5.213a2.707,2.707,0,0,1,2.717-.018c1.549.825,3.112,1.625,4.668,2.436l6.169,3.217m22.712-4.493c-.258-.107-.426-.184-.6-.247-1.808-.66-3.591-1.4-5.432-1.951a3.517,3.517,0,0,1-2.674-3c-.4-2.017-.982-4-1.52-6.128-.24.28-.4.452-.541.634-1.273,1.606-2.56,3.2-3.808,4.827a2.82,2.82,0,0,1-2.733,1.177c-1.446-.147-2.9-.2-4.422-.3.043.3.069.518.1.729q.713,4.181,1.431,8.361a2.223,2.223,0,0,1-.562,2.039c-1.072,1.068-1.179,2.551-1.955,3.945,2.382-.667,4.567-1.241,6.726-1.9a2.88,2.88,0,0,1,2.973.629c1.529,1.328,3.1,2.6,4.659,3.9.187.156.391.292.657.488.105-2.415.237-4.68.29-6.948a2.836,2.836,0,0,1,1.522-2.551c1.957-1.186,3.875-2.436,5.883-3.706M12.87,24.034c-.109.362-.192.6-.253.848-.5,1.985-1.008,3.966-1.479,5.957A2.714,2.714,0,0,1,9.3,32.926c-1.1.39-2.2.8-3.291,1.21-1.075.4-2.148.808-3.324,1.251.313.211.508.35.711.478,1.731,1.094,3.454,2.2,5.2,3.273A2.7,2.7,0,0,1,10,41.528c.054,2.1.165,4.192.255,6.288.01.225.036.45.064.782.33-.266.559-.444.781-.629,1.556-1.3,3.117-2.584,4.662-3.893a2.555,2.555,0,0,1,2.578-.576c.627.2,1.264.362,1.9.538l5.008,1.39c-.271-.689-.45-1.271-.721-1.806-.378-.746-.887-1.429-1.222-2.191a4.048,4.048,0,0,1-.474-1.911c.181-1.693.541-3.366.828-5.048.228-1.334.455-2.668.7-4.084-1.516.094-2.928.126-4.326.284a2.938,2.938,0,0,1-2.909-1.257c-1.355-1.783-2.774-3.517-4.252-5.381" transform="translate(0 0)" fill="#fec400"/><path d="M137.106,285.672a3.939,3.939,0,0,1-3-3.224,5.65,5.65,0,0,1-.053-.875q0-7.138,0-14.277a3.8,3.8,0,0,1,4.154-4.134c4.564-.006,9.128.01,13.691-.01a4.791,4.791,0,0,1,3.455,1.015c.333-.363.627-.716.955-1.035a3.747,3.747,0,1,1,5.313,5.281q-2.256,2.3-4.562,4.549a1.516,1.516,0,0,0-.493,1.215c.025,2.269.011,4.539.011,6.809,0,2.75-.59,3.654-3.058,4.685Zm16.965-9.662c-.3.28-.481.435-.648.6-1.4,1.4-2.783,2.808-4.2,4.188a3.681,3.681,0,0,1-5.213.1c-1.778-1.705-3.512-3.459-5.227-5.228a3.514,3.514,0,0,1-.856-3.6,3.7,3.7,0,0,1,6.056-1.737c.877.795,1.625,1.732,2.331,2.5l7.094-7.055a9.962,9.962,0,0,0-1.045-.111c-2.2-.01-4.392-.005-6.588-.005-2.562,0-5.124-.007-7.686,0-1.02,0-1.532.434-1.536,1.358q-.025,7.393,0,14.787a1.247,1.247,0,0,0,1.389,1.356q7.357.015,14.714,0a1.254,1.254,0,0,0,1.4-1.342c.027-1.877.008-3.755.008-5.82m-7.5,3.538a7.753,7.753,0,0,0,1.155-.786q6-5.963,11.968-11.954a3.039,3.039,0,0,0,.388-.436,1.26,1.26,0,0,0-.165-1.606,1.217,1.217,0,0,0-1.606-.077,5.4,5.4,0,0,0-.532.5l-9.943,9.941c-1.033,1.032-1.516,1.027-2.566-.021-.9-.9-1.789-1.8-2.7-2.69a1.256,1.256,0,0,0-1.929-.117,1.28,1.28,0,0,0,.166,1.882c1.565,1.576,3.132,3.151,4.719,4.7a6.2,6.2,0,0,0,1.039.657" transform="translate(-107.812 -210.674)" fill="#fec400"/></g></svg>