<svg xmlns="http://www.w3.org/2000/svg" xmlns:xlink="http://www.w3.org/1999/xlink" width="55.573" height="83.573" viewBox="0 0 55.573 83.573"><defs><clipPath id="a"><rect width="55.573" height="83.573" fill="#fec400"/></clipPath></defs><g clip-path="url(#a)"><path d="M24.375,83.573c-1.618-.164-3.24-.292-4.853-.5-4.955-.632-9.834-1.607-14.226-4.116a15.25,15.25,0,0,1-3.769-3.053,5.531,5.531,0,0,1-.057-7.523,15.037,15.037,0,0,1,6.183-4.248,43.278,43.278,0,0,1,10.114-2.691c-.255-.347-.451-.618-.652-.884-3.626-4.79-7.343-9.513-10.85-14.389A32.9,32.9,0,0,1,.441,32.752,27.782,27.782,0,0,1,55.019,22.336a28.823,28.823,0,0,1-3.321,20,94.823,94.823,0,0,1-8.462,12.174c-1.767,2.271-3.539,4.54-5.379,6.9,1.361.27,2.629.5,3.885.778a28.292,28.292,0,0,1,8.82,3.271A15.749,15.749,0,0,1,53.9,68.152a5.674,5.674,0,0,1,0,8.034,14.731,14.731,0,0,1-5.245,3.652,42.768,42.768,0,0,1-12.575,3.239c-1.614.2-3.235.333-4.853.5Zm3.357-14.211c.259-.319.413-.5.555-.686,3.277-4.305,6.581-8.591,9.821-12.923,3.206-4.287,6.509-8.514,9.476-12.962a26.155,26.155,0,0,0,4.4-18.923A24.539,24.539,0,1,0,4.724,36.262a42,42,0,0,0,6.5,11.34C16.637,54.76,22.111,61.869,27.556,69a2.358,2.358,0,0,1,.176.362M26.645,80.315a56.454,56.454,0,0,0,18.11-2.467,15.987,15.987,0,0,0,6.339-3.4c1.6-1.546,1.62-3.077-.022-4.56a13.764,13.764,0,0,0-2.794-1.949,36.1,36.1,0,0,0-12.255-3.422,1.214,1.214,0,0,0-.9.477c-1.914,2.541-3.8,5.105-5.68,7.67-1.1,1.5-2.189,1.5-3.287,0-1.877-2.568-3.777-5.121-5.645-7.7a.953.953,0,0,0-1.093-.453c-2.52.541-5.072.961-7.559,1.627A16.926,16.926,0,0,0,4.7,69.7c-1.871,1.688-1.92,3.362.062,4.935A18.1,18.1,0,0,0,9.1,77.169c5.64,2.312,11.6,2.955,17.545,3.146" transform="translate(0 0)" fill="#fec400"/><path d="M86.505,97.69A11.426,11.426,0,1,1,97.952,86.3,11.448,11.448,0,0,1,86.505,97.69m8.181-11.376a8.16,8.16,0,1,0-8.191,8.11,8.187,8.187,0,0,0,8.191-8.11" transform="translate(-58.723 -58.518)" fill="#fec400"/><path d="M166.436,54.709c0,.274.006.492,0,.709a1.631,1.631,0,1,1-3.255,0,18.02,18.02,0,0,0-11.618-16.841c-1.019-.4-1.5-1.034-1.386-1.848a1.663,1.663,0,0,1,2.418-1.248,20.877,20.877,0,0,1,9.889,7.562,21.108,21.108,0,0,1,3.953,11.663" transform="translate(-117.414 -27.625)" fill="#fec400"/><path d="M122.325,33.2a1.627,1.627,0,0,1,.073-3.253,1.627,1.627,0,1,1-.073,3.253" transform="translate(-94.412 -23.419)" fill="#fec400"/></g></svg>